# xmcd
#
# Track frame offsets:
#	150
#	14317
#	24870
#	36676
#	49706
#	60025
#	70724
#	85565
#	100811
#	118552
#	135398
#	147560
#
# Disc length: 2172 seconds
#
# Revision: 0
# Processed by: cddbd v1.5.1PL0 Copyright (c) Steve Scherf et al.
# Submitted via: dBpowerAMP V4.0
#
DISCID=92087a0c
DTITLE=Mad Mountain Scramblers - Sitting Ducks
DYEAR=2003
DGENRE=Bluegrass
TTITLE0=Breathing Blue
TTITLE1=I Wish You Knew
TTITLE2=Banks of the River
TTITLE3=Send A Letter To Mamma
TTITLE4=Bible For A Road Map
TTITLE5=Big Storm
TTITLE6=Flint Hill Special
TTITLE7=Kickstart Your Rooster
TTITLE8=Legend In Your Mind
TTITLE9=Country Fair
TTITLE10=Sitting Ducks
TTITLE11=Kenturkey Turnpike
EXTD=
EXTT0=
EXTT1=
EXTT2=
EXTT3=
EXTT4=
EXTT5=
EXTT6=
EXTT7=
EXTT8=
EXTT9=
EXTT10=
EXTT11=
PLAYORDER=
